Coordinates
version=1
nRows=10
nColumns=22
inDegrees=yes

Units are S.I. units (second, meters, Newtons, ...)
If the header above contains a line with 'inDegrees', this indicates whether rotational values are in degrees (yes) or radians (no).

endheader
time	pelvis_tilt	pelvis_list	pelvis_rotation	pelvis_tx	pelvis_ty	pelvis_tz	hip_flexion_r	hip_adduction_r	hip_rotation_r	knee_angle_r	ankle_angle_r	subtalar_angle_r	hip_flexion_l	hip_adduction_l	hip_rotation_l	knee_angle_l	ankle_angle_l	subtalar_angle_l	lumbar_extension	lumbar_bending	lumbar_rotation
      1.34000000	    -12.01160828	      3.38632936	    -35.20656101	     -1.77180683	      0.87580124	     -0.51640143	     12.89298406	      0.98709288	     -0.79220684	    -11.81867676	     15.56040719	      1.44891342	     13.91432086	     -8.39428926	     -4.85774338	    -19.64052550	     21.82776514	      5.91653067	      2.38615252	      2.43263879	     13.41896963
      1.35000000	    -12.10975956	      3.36582560	    -35.19364791	     -1.77052405	      0.87567252	     -0.51629922	     12.76120366	      1.01240563	     -0.82938565	    -11.58621934	     15.50378248	      1.59576784	     13.90344406	     -8.41067779	     -4.81065242	    -19.64171158	     21.97505203	      5.73359338	      2.39851508	      2.48966375	     13.49484282
      1.36000000	    -12.20770080	      3.40841677	    -35.18752860	     -1.76913585	      0.87547851	     -0.51618457	     12.68222223	      0.97955218	     -0.84610019	    -11.39600648	     15.51926255	      1.65235732	     13.89696906	     -8.36635045	     -4.77988422	    -19.59815290	     22.13116233	      5.66298960	      2.45827212	      2.49108166	     13.55530199
      1.37000000	    -12.31144717	      3.40900410	    -35.16256764	     -1.76766264	      0.87531981	     -0.51610264	     12.55575003	      0.97881193	     -0.88221617	    -11.16103692	     15.47468482	      1.81347198	     13.88474551	     -8.35575359	     -4.72390856	    -19.57822536	     22.26807457	      5.44839245	      2.48522722	      2.53364199	     13.63092805
      1.38000000	    -12.40987850	      3.44654042	    -35.13937176	     -1.76607291	      0.87512252	     -0.51602044	     12.46046096	      0.93697216	     -0.92132478	    -10.96597181	     15.48455565	      1.95597282	     13.86681848	     -8.30227501	     -4.67129860	    -19.52964579	     22.39343655	      5.27402586	      2.53462254	      2.54190516	     13.69461438
      1.39000000	    -12.51907456	      3.49716200	    -35.11587100	     -1.76440868	      0.87488541	     -0.51593530	     12.39096572	      0.88934173	     -0.94361672	    -10.79735954	     15.52030376	      2.00423735	     13.85788623	     -8.24373671	     -4.63777296	    -19.47186537	     22.51777632	      5.22782268	      2.59785449	      2.54515294	     13.75537334
      1.40000000	    -12.63040159	      3.54327990	    -35.08315288	     -1.76263552	      0.87464099	     -0.51586277	     12.30536202	      0.84036256	     -0.97250404	    -10.61126967	     15.53896862	      2.08657568	     13.84902993	     -8.18268452	     -4.57716167	    -19.42265926	     22.62858870	      5.15829564	      2.65715766	      2.55500931	     13.81386286
      1.41000000	    -12.73393359	      3.57383143	    -35.02802765	     -1.76075654	      0.87441163	     -0.51584031	     12.20107999	      0.78780662	     -1.04671636	    -10.42951981	     15.54267808	      2.31509249	     13.83201084	     -8.11841020	     -4.47838233	    -19.38563594	     22.69967691	      4.99609218	      2.68862039	      2.57380123	     13.87201343
      1.42000000	    -12.85072249	      3.63443885	    -34.99750502	     -1.75880613	      0.87411143	     -0.51575611	     12.13931340	      0.72371450	     -1.06861620	    -10.28508772	     15.60354952	      2.37027737	     13.82210439	     -8.04404647	     -4.43780490	    -19.32858212	     22.79882905	      4.98080004	      2.75265605	      2.57393937	     13.93992992
      1.43000000	    -12.96842806	      3.69583136	    -34.95102690	     -1.75676280	      0.87379623	     -0.51570431	     12.06957782	      0.65182456	     -1.10062988	    -10.13115697	     15.65066728	      2.45697518	     13.81799716	     -7.96059310	     -4.36859545	    -19.27983406	     22.88465630	      4.96746951	      2.80916902	      2.57391471	     14.00072745
